<svg width="24" height="24" viewBox="0 0 24 24" fill="none" xmlns="http://www.w3.org/2000/svg">
<g clip-path="url(#clip0_21_787)">
<path d="M19.97 10.0001H3.97V18.0001C3.97 21.0001 4.97 22.0001 7.97 22.0001H15.97C18.97 22.0001 19.97 21.0001 19.97 18.0001V10.0001ZM21.5 7.00006V8.00006C21.5 9.10006 20.97 10.0001 19.5 10.0001H4.5C2.97 10.0001 2.5 9.10006 2.5 8.00006V7.00006C2.5 5.90006 2.97 5.00006 4.5 5.00006H19.5C20.97 5.00006 21.5 5.90006 21.5 7.00006ZM11.64 5.00006H6.12C5.95557 4.82172 5.8668 4.58651 5.8724 4.344C5.87799 4.10149 5.97752 3.87063 6.15 3.70006L7.57 2.28006C7.74972 2.10235 7.99226 2.00269 8.245 2.00269C8.49774 2.00269 8.74028 2.10235 8.92 2.28006L11.64 5.00006ZM17.87 5.00006H12.35L15.07 2.28006C15.2497 2.10235 15.4923 2.00269 15.745 2.00269C15.9977 2.00269 16.2403 2.10235 16.42 2.28006L17.84 3.70006C18.2 4.06006 18.21 4.63006 17.87 5.00006V5.00006Z" stroke="#BEBAB3" stroke-width="1.5" stroke-miterlimit="10" stroke-linecap="round" stroke-linejoin="round"/>
<path d="M8.93994 10V29.245C8.93994 32.2403 12.2965 34.0001 14.852 32.3901L18.4375 30.0687C19.0602 29.6661 19.7896 29.4515 20.5353 29.4515C21.281 29.4515 22.0104 29.6661 22.6331 30.0687L26.0278 32.3152C26.6007 32.69 27.2664 32.9052 27.954 32.9377C28.6417 32.9703 29.3254 32.819 29.9323 32.4999C30.5392 32.1809 31.0465 31.7062 31.4001 31.1263C31.7536 30.5465 31.9402 29.8833 31.9399 29.2075V10H8.93994Z" stroke="#BEBAB3" stroke-width="1.5" stroke-miterlimit="10" stroke-linecap="round" stroke-linejoin="round"/>
</g>
<defs>
<clipPath id="clip0_21_787">
<rect width="24" height="24" fill="white"/>
</clipPath>
</defs>
</svg>
